<svg id="svg" version="1.1" width="400" height="397.0642201834862" viewBox="0 0 400 397.0642201834862" xmlns="http://www.w3.org/2000/svg" xmlns:xlink="http://www.w3.org/1999/xlink" ><g id="svgg"><path id="path0" d="M74.437 150.779 C 74.598 151.197,75.104 152.701,75.562 154.121 C 76.511 157.062,77.001 158.391,77.504 159.379 C 77.697 159.758,77.855 160.329,77.855 160.646 C 77.855 160.964,78.032 161.333,78.248 161.467 C 78.635 161.707,78.520 161.120,77.859 159.484 C 77.428 158.417,76.863 156.682,76.243 154.518 C 75.961 153.535,75.583 152.561,75.403 152.354 C 75.222 152.146,75.074 151.665,75.074 151.285 C 75.074 150.904,74.865 150.464,74.610 150.306 C 74.285 150.105,74.233 150.248,74.437 150.779 M68.113 152.887 C 69.211 153.054,69.829 153.403,70.140 154.029 C 70.740 155.238,71.213 155.680,70.864 154.705 C 70.317 153.174,69.434 152.531,67.962 152.589 L 66.534 152.645 68.113 152.887 M72.975 161.277 C 73.090 161.718,73.341 162.175,73.534 162.294 C 73.726 162.413,73.889 162.901,73.895 163.380 C 73.902 163.859,74.171 164.597,74.491 165.021 C 74.812 165.445,75.074 165.590,75.074 165.343 C 75.074 165.095,74.896 164.782,74.677 164.647 C 74.459 164.512,74.280 164.082,74.280 163.692 C 74.280 163.024,73.185 160.477,72.898 160.477 C 72.825 160.477,72.860 160.837,72.975 161.277 M61.370 164.717 C 61.717 165.002,62.594 167.296,64.117 171.897 C 64.352 172.607,64.676 173.188,64.838 173.188 C 65.000 173.188,64.759 172.249,64.302 171.102 C 63.845 169.955,63.159 168.043,62.777 166.852 C 62.396 165.661,61.834 164.620,61.528 164.537 C 61.191 164.447,61.129 164.517,61.370 164.717 M80.374 166.477 C 80.888 167.444,81.548 169.216,81.839 170.414 C 82.444 172.896,83.155 174.065,82.796 171.984 C 82.566 170.655,82.122 169.382,81.384 167.930 C 81.191 167.551,81.033 166.997,81.033 166.701 C 81.033 166.404,80.674 165.836,80.236 165.440 C 79.515 164.787,79.528 164.885,80.374 166.477 M75.624 170.583 C 75.503 170.898,75.475 171.478,75.560 171.874 C 75.657 172.322,75.793 172.107,75.922 171.301 C 76.138 169.948,75.998 169.609,75.624 170.583 M78.284 174.864 C 78.266 175.239,78.610 176.183,79.047 176.961 C 79.484 177.739,79.862 178.772,79.887 179.257 C 79.926 179.999,79.964 180.021,80.124 179.397 C 80.229 178.989,79.954 177.916,79.512 177.013 C 79.071 176.111,78.621 175.104,78.512 174.777 C 78.357 174.307,78.308 174.325,78.284 174.864 M84.010 176.223 C 86.524 181.321,87.356 187.484,85.799 189.474 C 85.372 190.020,85.019 190.614,85.014 190.793 C 85.002 191.221,85.865 190.272,86.495 189.166 C 87.072 188.151,87.168 182.662,86.618 182.105 C 86.413 181.898,86.185 181.281,86.112 180.735 C 86.038 180.189,85.880 179.563,85.760 179.345 C 85.641 179.126,85.305 178.190,85.014 177.265 C 84.723 176.340,84.164 175.292,83.772 174.937 C 83.199 174.419,83.245 174.671,84.010 176.223 M66.896 178.550 C 67.195 179.856,68.151 182.287,68.496 182.614 C 68.673 182.782,68.680 182.473,68.512 181.928 C 68.078 180.521,66.678 177.594,66.896 178.550 M82.562 187.533 C 82.639 188.629,82.813 189.415,82.948 189.280 C 83.256 188.972,83.047 186.196,82.688 185.819 C 82.542 185.665,82.486 186.437,82.562 187.533 M71.115 189.692 C 71.132 190.164,72.250 191.472,73.292 192.239 C 73.726 192.558,73.547 192.201,72.893 191.445 C 72.239 190.688,71.569 189.900,71.403 189.692 C 71.213 189.454,71.107 189.454,71.115 189.692 M83.217 192.089 C 82.562 192.615,81.634 193.046,81.156 193.047 C 80.677 193.048,80.175 193.227,80.040 193.446 C 79.687 194.017,77.818 193.935,75.919 193.265 C 73.931 192.563,73.736 192.862,75.658 193.665 C 77.243 194.327,79.679 194.426,80.040 193.843 C 80.175 193.625,80.635 193.446,81.062 193.446 C 81.883 193.446,83.213 192.795,84.143 191.937 C 85.163 190.997,84.430 191.117,83.217 192.089 " stroke="none" fill="#555555" fill-rule="evenodd"></path><path id="path1" d="M79.047 81.581 C 79.047 82.153,78.868 82.622,78.649 82.622 C 78.431 82.622,78.252 83.158,78.252 83.813 C 78.252 84.469,78.118 85.006,77.954 85.008 C 77.479 85.013,76.663 87.049,76.663 88.229 C 76.663 88.822,76.486 89.368,76.270 89.441 C 76.054 89.513,75.760 90.690,75.618 92.056 C 75.475 93.421,75.205 94.538,75.018 94.538 C 74.831 94.538,74.677 95.164,74.677 95.929 C 74.677 96.693,74.499 97.319,74.280 97.319 C 74.062 97.319,73.883 98.302,73.883 99.503 C 73.883 100.705,73.704 101.688,73.486 101.688 C 73.256 101.688,73.088 102.946,73.088 104.667 C 73.088 106.389,72.921 107.646,72.691 107.646 C 72.439 107.646,72.294 110.692,72.294 115.988 C 72.294 121.284,72.439 124.330,72.691 124.330 C 72.915 124.330,73.088 125.455,73.088 126.912 C 73.088 128.368,73.262 129.494,73.486 129.494 C 73.704 129.494,73.883 130.298,73.883 131.281 C 73.883 132.264,74.062 133.069,74.280 133.069 C 74.499 133.069,74.677 133.784,74.677 134.657 C 74.677 135.531,74.819 136.246,74.993 136.246 C 75.511 136.246,76.122 141.269,75.715 142.182 C 75.514 142.631,75.199 142.999,75.014 142.999 C 74.829 142.999,74.677 143.201,74.677 143.449 C 74.677 143.696,74.303 144.223,73.847 144.619 C 73.014 145.341,73.029 146.809,73.887 148.547 C 74.945 150.691,76.068 153.763,77.086 157.299 C 77.369 158.282,77.731 159.265,77.891 159.484 C 78.051 159.702,78.306 160.551,78.460 161.370 C 78.613 162.190,78.897 162.860,79.091 162.860 C 79.285 162.860,79.444 163.279,79.444 163.791 C 79.444 164.304,79.801 165.046,80.238 165.442 C 80.675 165.837,81.033 166.404,81.033 166.701 C 81.033 166.997,81.191 167.551,81.384 167.930 C 82.220 169.574,82.593 170.718,82.840 172.393 C 82.984 173.376,83.412 174.538,83.791 174.975 C 84.169 175.412,84.670 176.306,84.903 176.961 C 85.137 177.617,85.461 178.510,85.625 178.947 C 85.788 179.384,85.994 180.189,86.084 180.735 C 86.173 181.281,86.413 181.898,86.618 182.105 C 87.168 182.662,87.072 188.153,86.495 189.156 C 85.309 191.218,82.487 193.446,81.062 193.446 C 80.635 193.446,80.175 193.625,80.040 193.843 C 78.725 195.971,71.941 192.275,70.762 188.788 C 70.483 187.964,70.088 186.887,69.884 186.395 C 69.151 184.629,68.350 182.597,67.416 180.139 C 67.084 179.265,66.437 177.588,65.978 176.412 C 65.520 175.236,65.144 174.044,65.144 173.764 C 65.144 173.483,65.010 173.194,64.846 173.121 C 64.518 172.976,63.411 170.162,62.412 166.932 C 61.777 164.879,60.775 164.088,60.775 165.641 C 60.775 166.077,60.596 166.435,60.377 166.435 C 60.159 166.435,59.980 166.792,59.980 167.229 C 59.980 167.666,59.801 168.024,59.583 168.024 C 59.364 168.024,59.186 168.471,59.186 169.017 C 59.186 169.563,59.007 170.010,58.788 170.010 C 58.570 170.010,58.391 170.546,58.391 171.202 C 58.391 171.857,58.213 172.393,57.994 172.393 C 57.776 172.393,57.597 172.840,57.597 173.386 C 57.597 173.932,57.418 174.379,57.200 174.379 C 56.981 174.379,56.802 174.916,56.802 175.571 C 56.802 176.226,56.639 176.763,56.439 176.763 C 56.239 176.763,55.950 178.103,55.797 179.742 C 55.643 181.380,55.360 182.721,55.167 182.721 C 54.974 182.721,54.816 183.704,54.816 184.906 C 54.816 186.107,54.638 187.090,54.419 187.090 C 54.195 187.090,54.022 188.216,54.022 189.672 C 54.022 191.129,53.849 192.254,53.625 192.254 C 53.368 192.254,53.227 196.756,53.227 204.965 C 53.227 213.174,53.368 217.676,53.625 217.676 C 53.865 217.676,54.022 219.398,54.022 222.046 C 54.022 224.694,54.178 226.415,54.419 226.415 C 54.643 226.415,54.816 227.541,54.816 228.997 C 54.816 230.417,54.972 231.579,55.162 231.579 C 55.353 231.579,55.635 233.365,55.790 235.547 C 55.944 237.730,56.236 239.617,56.437 239.741 C 56.638 239.866,56.802 240.583,56.802 241.334 C 56.802 242.086,56.981 242.701,57.200 242.701 C 57.418 242.701,57.597 243.327,57.597 244.091 C 57.597 244.856,57.776 245.482,57.994 245.482 C 58.213 245.482,58.391 246.197,58.391 247.071 C 58.391 247.944,58.570 248.659,58.788 248.659 C 59.007 248.659,59.186 249.106,59.186 249.652 C 59.186 250.199,59.364 250.645,59.583 250.645 C 59.801 250.645,59.980 251.003,59.980 251.440 C 59.980 252.225,59.715 252.234,38.332 252.234 C 24.164 252.234,16.683 252.372,16.683 252.632 C 16.683 252.879,14.374 253.029,10.550 253.029 C 6.889 253.029,4.317 253.189,4.171 253.426 C 4.036 253.644,3.042 253.823,1.963 253.823 L 0.000 253.823 0.000 255.611 C 0.000 256.935,0.154 257.398,0.596 257.398 C 0.924 257.398,1.192 257.219,1.192 257.001 C 1.192 256.757,3.104 256.604,6.133 256.604 C 9.000 256.604,11.178 256.437,11.321 256.207 C 11.471 255.963,14.635 255.809,19.487 255.809 C 24.503 255.809,27.408 255.664,27.408 255.412 C 27.408 254.867,55.870 254.867,56.207 255.412 C 56.342 255.631,57.437 255.809,58.642 255.809 C 60.846 255.809,61.966 256.375,61.966 257.489 C 61.966 258.242,62.893 260.172,63.257 260.176 C 63.421 260.177,63.555 260.536,63.555 260.973 C 63.555 261.410,63.734 261.768,63.952 261.768 C 64.171 261.768,64.350 262.125,64.350 262.562 C 64.350 263.321,64.085 263.357,58.391 263.357 C 55.114 263.357,52.433 263.510,52.433 263.697 C 52.433 263.884,48.098 264.166,42.800 264.323 C 37.502 264.480,32.998 264.773,32.790 264.975 C 32.583 265.177,30.840 265.343,28.918 265.343 C 26.852 265.343,25.422 265.505,25.422 265.740 C 25.422 265.971,24.106 266.137,22.268 266.137 C 20.533 266.137,19.003 266.316,18.868 266.534 C 18.733 266.753,17.471 266.931,16.064 266.931 C 14.623 266.931,13.505 267.105,13.505 267.329 C 13.505 267.556,12.314 267.726,10.725 267.726 C 9.136 267.726,7.944 267.896,7.944 268.123 C 7.944 268.344,6.885 268.520,5.561 268.520 C 4.237 268.520,3.178 268.697,3.178 268.918 C 3.178 269.136,2.463 269.315,1.589 269.315 L 0.000 269.315 0.000 271.102 C 0.000 272.744,0.081 272.890,0.993 272.890 C 1.539 272.890,1.986 272.711,1.986 272.493 C 1.986 272.272,3.038 272.095,4.346 272.095 C 5.644 272.095,6.816 271.917,6.951 271.698 C 7.086 271.480,8.259 271.301,9.557 271.301 C 10.865 271.301,11.917 271.124,11.917 270.904 C 11.917 270.680,13.042 270.506,14.499 270.506 C 15.955 270.506,17.080 270.333,17.080 270.109 C 17.080 269.876,18.471 269.712,20.457 269.712 C 22.314 269.712,23.833 269.558,23.833 269.370 C 23.833 269.044,33.151 268.317,42.900 267.882 C 45.412 267.770,47.638 267.510,47.845 267.305 C 48.053 267.100,51.136 266.931,54.697 266.931 C 58.749 266.931,61.172 266.783,61.172 266.534 C 61.172 266.310,62.297 266.137,63.754 266.137 C 66.071 266.137,66.336 266.219,66.336 266.931 C 66.336 267.368,66.514 267.726,66.733 267.726 C 66.951 267.726,67.130 267.994,67.130 268.322 C 67.130 268.649,67.309 268.918,67.527 268.918 C 67.746 268.918,67.925 269.236,67.925 269.624 C 67.925 270.013,68.282 270.589,68.719 270.904 C 69.156 271.219,69.513 271.794,69.513 272.183 C 69.513 272.572,69.680 272.890,69.884 272.890 C 70.088 272.890,70.361 273.226,70.492 273.638 C 70.622 274.049,71.260 274.942,71.909 275.620 C 72.558 276.299,73.088 276.992,73.088 277.159 C 73.088 277.326,73.714 278.037,74.479 278.739 C 75.243 279.441,75.869 280.258,75.869 280.555 C 75.869 280.852,76.807 281.996,77.954 283.097 C 79.101 284.198,80.605 285.703,81.297 286.442 C 83.020 288.283,83.676 288.779,84.392 288.779 C 84.729 288.779,85.005 288.938,85.005 289.134 C 85.005 289.667,87.242 291.956,87.764 291.956 C 88.013 291.956,88.699 292.403,89.288 292.949 C 89.877 293.496,90.545 293.942,90.772 293.942 C 90.999 293.942,91.443 294.300,91.758 294.737 C 92.073 295.174,92.609 295.531,92.949 295.531 C 93.290 295.531,93.826 295.889,94.141 296.326 C 94.456 296.763,94.866 297.120,95.052 297.120 C 95.237 297.120,95.658 297.388,95.985 297.716 C 96.313 298.044,96.926 298.312,97.347 298.312 C 97.768 298.312,98.113 298.491,98.113 298.709 C 98.113 298.928,98.381 299.106,98.709 299.106 C 99.037 299.106,99.305 299.285,99.305 299.503 C 99.305 299.722,99.662 299.901,100.099 299.901 C 100.536 299.901,100.894 300.079,100.894 300.298 C 100.894 300.516,101.251 300.695,101.688 300.695 C 102.125 300.695,102.483 300.874,102.483 301.092 C 102.483 301.311,102.840 301.490,103.277 301.490 C 103.714 301.490,104.071 301.660,104.071 301.869 C 104.071 302.077,104.697 302.365,105.462 302.509 C 106.226 302.652,106.852 302.929,106.852 303.123 C 106.852 303.317,107.210 303.476,107.646 303.476 C 108.083 303.476,108.441 303.654,108.441 303.873 C 108.441 304.091,108.709 304.270,109.037 304.270 C 109.364 304.270,109.633 304.449,109.633 304.667 C 109.633 304.886,110.169 305.065,110.824 305.065 C 111.480 305.065,112.016 305.243,112.016 305.462 C 112.016 305.680,112.373 305.859,112.810 305.859 C 113.247 305.859,113.605 306.038,113.605 306.256 C 113.605 306.475,114.052 306.653,114.598 306.653 C 115.144 306.653,115.591 306.832,115.591 307.051 C 115.591 307.269,116.082 307.449,116.683 307.450 C 117.284 307.452,118.288 307.720,118.913 308.046 C 119.539 308.373,120.567 308.640,121.197 308.640 C 121.828 308.640,122.344 308.818,122.344 309.037 C 122.344 309.255,122.790 309.434,123.337 309.434 C 123.883 309.434,124.330 309.613,124.330 309.831 C 124.330 310.050,124.866 310.228,125.521 310.228 C 126.177 310.228,126.713 310.407,126.713 310.626 C 126.713 310.844,127.339 311.023,128.103 311.023 C 128.868 311.023,129.494 311.202,129.494 311.420 C 129.494 311.639,130.209 311.817,131.082 311.817 C 131.956 311.817,132.671 311.984,132.671 312.187 C 132.671 312.391,134.101 312.682,135.849 312.834 C 137.597 312.987,139.027 313.267,139.027 313.457 C 139.027 313.648,139.821 313.803,140.791 313.803 C 141.761 313.803,142.665 313.982,142.800 314.201 C 142.935 314.419,144.018 314.598,145.207 314.598 C 146.396 314.598,147.368 314.777,147.368 314.995 C 147.368 315.214,148.352 315.392,149.553 315.392 C 150.755 315.392,151.738 315.571,151.738 315.789 C 151.738 316.012,152.837 316.187,154.240 316.187 C 155.713 316.187,156.947 316.391,157.239 316.683 C 157.631 317.074,167.014 317.180,201.476 317.180 C 236.116 317.180,245.251 317.076,245.382 316.683 C 245.495 316.346,246.490 316.187,248.494 316.187 C 250.193 316.187,251.440 316.019,251.440 315.789 C 251.440 315.565,252.565 315.392,254.022 315.392 C 255.478 315.392,256.604 315.219,256.604 314.995 C 256.604 314.777,257.587 314.598,258.788 314.598 C 259.990 314.598,260.973 314.419,260.973 314.201 C 260.973 313.982,261.778 313.803,262.761 313.803 C 263.744 313.803,264.548 313.648,264.548 313.457 C 264.548 313.267,265.975 312.987,267.719 312.835 C 269.463 312.683,270.993 312.392,271.119 312.188 C 271.245 311.984,271.963 311.817,272.715 311.817 C 273.466 311.817,274.081 311.639,274.081 311.420 C 274.081 311.202,274.697 311.023,275.448 311.023 C 276.200 311.023,276.926 310.844,277.061 310.626 C 277.196 310.407,277.742 310.228,278.276 310.228 C 278.809 310.228,279.245 310.050,279.245 309.831 C 279.245 309.613,279.871 309.434,280.636 309.434 C 281.400 309.434,282.026 309.255,282.026 309.037 C 282.026 308.818,282.562 308.640,283.217 308.640 C 283.873 308.640,284.409 308.481,284.409 308.287 C 284.409 308.094,285.214 307.815,286.197 307.667 C 287.180 307.520,287.984 307.231,287.984 307.026 C 287.984 306.821,288.306 306.653,288.699 306.653 C 289.587 306.653,291.552 305.766,291.556 305.362 C 291.558 305.199,292.095 305.065,292.751 305.065 C 293.406 305.065,293.942 304.886,293.942 304.667 C 293.942 304.449,294.300 304.270,294.737 304.270 C 295.174 304.270,295.531 304.091,295.531 303.873 C 295.531 303.654,295.799 303.476,296.127 303.476 C 296.455 303.476,296.723 303.313,296.723 303.113 C 296.723 302.914,297.438 302.630,298.312 302.483 C 299.186 302.335,299.901 302.051,299.901 301.852 C 299.901 301.653,300.169 301.490,300.497 301.490 C 300.824 301.490,301.092 301.311,301.092 301.092 C 301.092 300.874,301.450 300.695,301.887 300.695 C 302.324 300.695,302.681 300.516,302.681 300.298 C 302.681 300.079,302.973 299.901,303.330 299.901 C 303.686 299.901,304.267 299.569,304.621 299.163 C 304.974 298.757,305.665 298.298,306.157 298.143 C 306.648 297.988,307.051 297.694,307.051 297.491 C 307.051 297.287,307.369 297.120,307.757 297.120 C 308.146 297.120,308.722 296.763,309.037 296.326 C 309.352 295.889,309.836 295.531,310.114 295.531 C 310.392 295.531,310.842 295.174,311.115 294.737 C 311.388 294.300,311.835 293.942,312.108 293.942 C 312.833 293.942,315.084 291.990,316.175 290.416 C 316.496 289.952,316.996 289.573,317.286 289.573 C 317.929 289.573,321.748 285.818,321.748 285.186 C 321.748 284.937,322.552 284.014,323.535 283.134 C 324.518 282.254,325.323 281.237,325.323 280.875 C 325.323 280.512,325.680 279.957,326.117 279.643 C 326.554 279.328,326.912 278.881,326.912 278.649 C 326.912 278.418,327.269 277.971,327.706 277.656 C 328.143 277.341,328.500 276.848,328.500 276.559 C 328.500 276.270,328.865 275.643,329.310 275.165 C 329.756 274.687,330.231 273.845,330.367 273.295 C 330.503 272.744,330.943 272.005,331.345 271.652 C 331.747 271.298,332.075 270.717,332.075 270.361 C 332.075 270.004,332.254 269.712,332.473 269.712 C 332.691 269.712,332.870 269.265,332.870 268.719 C 332.870 268.173,333.049 267.726,333.267 267.726 C 333.486 267.726,333.664 267.368,333.664 266.931 C 333.664 266.196,333.929 266.137,337.239 266.137 C 339.358 266.137,340.814 266.299,340.814 266.534 C 340.814 266.783,343.330 266.931,347.567 266.931 C 351.804 266.931,354.320 267.079,354.320 267.329 C 354.320 267.571,356.173 267.726,359.086 267.726 C 361.708 267.726,363.853 267.885,363.853 268.080 C 363.853 268.275,367.160 268.565,371.202 268.724 C 375.243 268.884,378.550 269.171,378.550 269.363 C 378.550 269.555,379.801 269.712,381.331 269.712 C 382.920 269.712,384.111 269.882,384.111 270.109 C 384.111 270.333,385.229 270.506,386.670 270.506 C 388.077 270.506,389.339 270.685,389.474 270.904 C 389.609 271.122,390.781 271.301,392.079 271.301 C 393.387 271.301,394.439 271.478,394.439 271.698 C 394.439 271.925,395.631 272.095,397.219 272.095 L 400.000 272.095 400.000 270.705 C 400.000 269.487,399.877 269.315,399.007 269.315 C 398.461 269.315,398.014 269.136,398.014 268.918 C 398.014 268.699,397.031 268.520,395.829 268.520 C 394.628 268.520,393.644 268.342,393.644 268.123 C 393.644 267.899,392.519 267.726,391.063 267.726 C 389.606 267.726,388.481 267.553,388.481 267.329 C 388.481 267.099,387.223 266.931,385.501 266.931 C 383.780 266.931,382.522 266.764,382.522 266.534 C 382.522 266.303,381.198 266.137,379.345 266.137 C 377.491 266.137,376.167 265.972,376.167 265.740 C 376.167 265.503,374.655 265.343,372.426 265.343 C 370.369 265.343,368.626 265.178,368.553 264.977 C 368.481 264.776,364.086 264.483,358.788 264.325 C 353.491 264.167,349.156 263.884,349.156 263.697 C 349.156 263.510,346.117 263.357,342.403 263.357 L 335.650 263.357 335.650 262.165 C 335.650 261.509,335.829 260.973,336.048 260.973 C 336.266 260.973,336.445 260.537,336.445 260.004 C 336.445 259.470,336.624 258.924,336.842 258.788 C 337.061 258.653,337.239 258.183,337.239 257.744 C 337.239 256.203,338.164 255.809,341.779 255.809 C 343.784 255.809,345.184 255.646,345.184 255.412 C 345.184 255.154,350.348 255.015,359.881 255.015 C 369.414 255.015,374.578 255.154,374.578 255.412 C 374.578 255.664,377.557 255.809,382.721 255.809 C 387.885 255.809,390.864 255.955,390.864 256.207 C 390.864 256.448,392.651 256.604,395.432 256.604 L 400.000 256.604 400.000 255.214 C 400.000 253.889,399.934 253.823,398.610 253.823 C 397.845 253.823,397.219 253.644,397.219 253.426 C 397.219 253.178,394.902 253.029,391.063 253.029 C 387.223 253.029,384.906 252.879,384.906 252.632 C 384.906 252.371,376.947 252.234,361.824 252.234 C 339.988 252.234,338.760 252.197,339.055 251.539 C 339.227 251.157,339.549 249.369,339.770 247.567 C 339.991 245.765,340.317 244.290,340.493 244.290 C 340.670 244.290,340.814 243.396,340.814 242.304 C 340.814 241.212,340.993 240.318,341.212 240.318 C 341.436 240.318,341.609 239.192,341.609 237.736 C 341.609 236.279,341.782 235.154,342.006 235.154 C 342.241 235.154,342.403 233.697,342.403 231.579 C 342.403 229.460,342.565 228.004,342.800 228.004 C 343.049 228.004,343.198 225.554,343.198 221.450 C 343.198 217.345,343.346 214.896,343.595 214.896 C 343.848 214.896,343.992 211.527,343.992 205.585 C 343.992 199.806,343.841 196.180,343.595 196.028 C 343.375 195.892,343.198 194.104,343.198 192.032 C 343.198 189.797,343.037 188.282,342.800 188.282 C 342.582 188.282,342.403 187.299,342.403 186.097 C 342.403 184.896,342.224 183.913,342.006 183.913 C 341.787 183.913,341.609 183.108,341.609 182.125 C 341.609 181.142,341.430 180.338,341.212 180.338 C 340.993 180.338,340.814 179.712,340.814 178.947 C 340.814 178.183,340.661 177.557,340.474 177.557 C 340.286 177.557,340.016 176.440,339.874 175.074 C 339.731 173.709,339.438 172.532,339.222 172.459 C 339.005 172.387,338.828 171.906,338.828 171.391 C 338.828 170.875,338.649 170.344,338.431 170.209 C 338.213 170.074,338.034 169.616,338.034 169.192 C 338.034 168.768,337.855 168.421,337.637 168.421 C 337.418 168.421,337.239 167.974,337.239 167.428 C 337.239 166.882,337.061 166.435,336.842 166.435 C 336.624 166.435,336.445 166.077,336.445 165.641 C 336.445 165.204,336.266 164.846,336.048 164.846 C 335.829 164.846,335.650 164.489,335.650 164.052 C 335.650 163.615,335.472 163.257,335.253 163.257 C 335.035 163.257,334.856 162.882,334.856 162.423 C 334.856 161.324,333.691 158.855,332.791 158.047 C 332.397 157.693,332.075 157.112,332.075 156.756 C 332.075 156.399,331.897 156.107,331.678 156.107 C 331.460 156.107,331.281 155.750,331.281 155.313 C 331.281 154.876,331.106 154.518,330.891 154.518 C 330.677 154.518,330.390 154.071,330.252 153.525 C 330.115 152.979,329.844 152.532,329.649 152.532 C 329.454 152.532,329.295 152.291,329.295 151.995 C 329.295 151.700,328.759 150.897,328.103 150.211 C 327.448 149.526,326.912 148.865,326.912 148.744 C 326.912 148.623,326.465 148.077,325.919 147.531 C 325.372 146.985,324.926 146.304,324.926 146.019 C 324.926 145.404,322.709 142.999,322.142 142.999 C 321.925 142.999,321.748 142.696,321.748 142.326 C 321.748 141.956,320.765 140.701,319.563 139.538 C 317.522 137.561,316.600 135.452,317.776 135.452 C 317.994 135.452,318.173 134.826,318.173 134.062 C 318.173 133.297,318.352 132.671,318.570 132.671 C 318.788 132.671,318.967 131.778,318.967 130.685 C 318.967 129.593,319.146 128.699,319.364 128.699 C 319.600 128.699,319.762 127.250,319.762 125.148 C 319.762 123.194,319.940 121.486,320.159 121.351 C 320.392 121.207,320.556 118.905,320.556 115.789 C 320.556 112.674,320.392 110.372,320.159 110.228 C 319.940 110.093,319.762 108.474,319.762 106.630 C 319.762 104.660,319.598 103.277,319.364 103.277 C 319.146 103.277,318.967 102.294,318.967 101.092 C 318.967 99.891,318.788 98.908,318.570 98.908 C 318.352 98.908,318.173 98.114,318.173 97.144 C 318.173 96.173,317.994 95.269,317.776 95.134 C 317.557 94.999,317.378 94.273,317.378 93.522 C 317.378 92.770,317.200 92.155,316.981 92.155 C 316.763 92.155,316.584 91.529,316.584 90.765 C 316.584 90.000,316.428 89.374,316.238 89.374 C 316.048 89.374,315.774 88.488,315.631 87.405 C 315.487 86.321,315.196 85.328,314.984 85.196 C 314.771 85.065,314.598 84.611,314.598 84.187 C 314.598 83.763,314.419 83.416,314.201 83.416 C 313.982 83.416,313.803 82.883,313.803 82.232 C 313.803 81.288,313.594 80.995,312.769 80.788 C 310.982 80.340,295.789 80.855,295.617 81.370 C 295.534 81.621,294.865 81.827,294.131 81.827 C 293.398 81.827,292.687 82.006,292.552 82.224 C 292.417 82.443,291.870 82.622,291.337 82.622 C 290.804 82.622,290.367 82.800,290.367 83.019 C 290.367 83.237,289.831 83.416,289.176 83.416 C 288.520 83.416,287.984 83.595,287.984 83.813 C 287.984 84.032,287.537 84.211,286.991 84.211 C 286.445 84.211,285.998 84.366,285.998 84.555 C 285.998 84.745,285.242 85.002,284.318 85.126 C 283.395 85.250,282.575 85.541,282.498 85.774 C 282.420 86.006,281.835 86.197,281.198 86.197 C 280.561 86.197,280.040 86.375,280.040 86.594 C 280.040 86.812,279.682 86.991,279.245 86.991 C 278.808 86.991,278.451 87.170,278.451 87.388 C 278.451 87.607,278.183 87.786,277.855 87.786 C 277.527 87.786,277.259 87.964,277.259 88.183 C 277.259 88.401,276.723 88.580,276.068 88.580 C 275.412 88.580,274.876 88.715,274.876 88.880 C 274.876 89.045,274.295 89.432,273.585 89.739 C 270.077 91.259,268.123 92.281,268.123 92.599 C 268.123 92.792,267.855 92.949,267.527 92.949 C 267.200 92.949,266.931 93.128,266.931 93.347 C 266.931 93.565,266.574 93.744,266.137 93.744 C 265.700 93.744,265.343 93.900,265.343 94.091 C 265.343 94.283,264.851 94.538,264.250 94.660 C 263.649 94.781,262.763 95.251,262.281 95.703 C 261.798 96.155,261.128 96.524,260.791 96.524 C 260.454 96.524,260.179 96.703,260.179 96.922 C 260.179 97.140,259.950 97.319,259.671 97.319 C 259.391 97.319,258.905 97.676,258.590 98.113 C 258.275 98.550,257.699 98.908,257.311 98.908 C 256.922 98.908,256.604 99.052,256.604 99.228 C 256.604 99.405,255.889 99.865,255.015 100.250 C 254.141 100.636,253.426 101.117,253.426 101.320 C 253.426 101.522,253.158 101.688,252.830 101.688 C 252.502 101.688,252.234 101.867,252.234 102.085 C 252.234 102.304,251.519 102.483,250.645 102.483 C 249.772 102.483,249.057 102.304,249.057 102.085 C 249.057 101.867,248.252 101.688,247.269 101.688 C 246.286 101.688,245.482 101.509,245.482 101.291 C 245.482 101.072,244.713 100.894,243.774 100.894 C 242.834 100.894,241.893 100.722,241.683 100.511 C 241.473 100.301,239.560 100.006,237.433 99.857 C 235.305 99.707,233.565 99.432,233.565 99.246 C 233.565 99.060,232.314 98.908,230.785 98.908 C 229.196 98.908,228.004 98.737,228.004 98.510 C 228.004 98.277,226.614 98.113,224.628 98.113 C 222.642 98.113,221.251 97.950,221.251 97.716 C 221.251 97.472,219.265 97.319,216.087 97.319 C 212.910 97.319,210.924 97.166,210.924 96.922 C 210.924 96.666,207.018 96.524,200.000 96.524 C 192.982 96.524,189.076 96.666,189.076 96.922 C 189.076 97.167,187.032 97.319,183.737 97.319 C 180.607 97.319,178.297 97.483,178.153 97.716 C 178.018 97.934,176.488 98.113,174.753 98.113 C 172.915 98.113,171.599 98.279,171.599 98.510 C 171.599 98.734,170.473 98.908,169.017 98.908 C 167.597 98.908,166.435 99.067,166.435 99.261 C 166.435 99.456,164.467 99.744,162.062 99.901 C 159.657 100.058,157.591 100.346,157.471 100.540 C 157.350 100.735,156.558 100.894,155.710 100.894 C 154.862 100.894,154.058 101.072,153.923 101.291 C 153.788 101.509,152.883 101.688,151.913 101.688 C 150.943 101.688,150.149 101.867,150.149 102.085 C 150.149 102.304,149.523 102.483,148.759 102.483 C 147.994 102.483,147.368 102.661,147.368 102.880 C 147.368 103.098,146.653 103.277,145.780 103.277 C 144.906 103.277,144.191 103.456,144.191 103.674 C 144.191 103.893,143.833 104.071,143.396 104.071 C 142.959 104.071,142.602 103.893,142.602 103.674 C 142.602 103.456,142.416 103.277,142.188 103.277 C 141.960 103.277,141.390 102.920,140.921 102.483 C 140.452 102.046,139.834 101.688,139.548 101.688 C 139.261 101.688,139.027 101.538,139.027 101.354 C 139.027 101.169,138.401 100.682,137.637 100.270 C 136.872 99.858,136.246 99.383,136.246 99.215 C 136.246 99.046,135.889 98.908,135.452 98.908 C 135.015 98.908,134.657 98.729,134.657 98.510 C 134.657 98.292,134.339 98.113,133.951 98.113 C 133.562 98.113,132.986 97.756,132.671 97.319 C 132.356 96.882,131.870 96.524,131.591 96.524 C 131.311 96.524,131.082 96.346,131.082 96.127 C 131.082 95.909,130.802 95.730,130.458 95.730 C 130.115 95.730,129.566 95.462,129.238 95.134 C 128.910 94.806,128.298 94.538,127.876 94.538 C 127.455 94.538,127.110 94.359,127.110 94.141 C 127.110 93.923,126.842 93.744,126.514 93.744 C 126.187 93.744,125.919 93.565,125.919 93.347 C 125.919 93.128,125.561 92.949,125.124 92.949 C 124.687 92.949,124.330 92.771,124.330 92.552 C 124.330 92.334,123.972 92.155,123.535 92.155 C 123.098 92.155,122.741 91.976,122.741 91.758 C 122.741 91.539,122.473 91.360,122.145 91.360 C 121.817 91.360,121.549 91.197,121.549 90.998 C 121.549 90.799,120.834 90.515,119.960 90.367 C 119.086 90.220,118.371 89.936,118.371 89.737 C 118.371 89.537,118.103 89.374,117.776 89.374 C 117.448 89.374,117.180 89.196,117.180 88.977 C 117.180 88.759,116.822 88.580,116.385 88.580 C 115.948 88.580,115.591 88.401,115.591 88.183 C 115.591 87.964,115.233 87.786,114.796 87.786 C 114.359 87.786,114.001 87.651,113.999 87.488 C 113.995 87.085,112.030 86.197,111.142 86.197 C 110.749 86.197,110.427 86.029,110.427 85.824 C 110.427 85.619,109.623 85.330,108.640 85.183 C 107.656 85.035,106.852 84.756,106.852 84.563 C 106.852 84.369,106.316 84.211,105.660 84.211 C 105.005 84.211,104.469 84.032,104.469 83.813 C 104.469 83.595,104.022 83.416,103.476 83.416 C 102.929 83.416,102.483 83.237,102.483 83.019 C 102.483 82.800,101.946 82.622,101.291 82.622 C 100.636 82.622,100.099 82.443,100.099 82.224 C 100.099 82.006,99.509 81.827,98.788 81.827 C 98.068 81.827,97.261 81.611,96.996 81.346 C 96.659 81.009,93.898 80.816,87.781 80.702 L 79.047 80.539 79.047 81.581 M150.149 191.002 C 150.149 191.187,155.735 191.465,162.562 191.620 C 169.698 191.783,175.031 192.062,175.108 192.277 C 175.183 192.491,178.038 192.651,181.761 192.651 C 185.844 192.651,188.282 192.800,188.282 193.049 C 188.282 193.304,192.188 193.446,199.206 193.446 C 206.223 193.446,210.129 193.304,210.129 193.049 C 210.129 192.800,212.634 192.651,216.849 192.651 C 220.632 192.651,223.626 192.490,223.701 192.282 C 223.775 192.075,228.860 191.787,235.266 191.627 C 241.555 191.470,246.794 191.189,246.909 191.003 C 247.180 190.563,258.193 190.561,258.193 191.001 C 258.193 191.185,260.919 191.454,264.250 191.598 C 267.678 191.746,270.365 192.032,270.440 192.256 C 270.513 192.473,271.183 192.651,271.930 192.651 C 272.676 192.651,273.287 192.830,273.287 193.049 C 273.287 193.267,273.823 193.446,274.479 193.446 C 275.134 193.446,275.670 193.625,275.670 193.843 C 275.670 194.062,276.117 194.240,276.663 194.240 C 277.210 194.240,277.656 194.419,277.656 194.638 C 277.656 194.856,278.014 195.035,278.451 195.035 C 278.888 195.035,279.245 195.198,279.245 195.397 C 279.245 195.596,279.960 195.880,280.834 196.028 C 281.708 196.175,282.423 196.459,282.423 196.659 C 282.423 196.858,282.652 197.021,282.931 197.021 C 283.211 197.021,283.697 197.378,284.012 197.815 C 284.327 198.252,284.863 198.610,285.204 198.610 C 285.544 198.610,286.080 198.967,286.395 199.404 C 286.710 199.841,287.115 200.199,287.294 200.199 C 287.776 200.199,289.345 201.617,292.552 204.952 C 292.771 205.179,293.530 205.883,294.240 206.516 C 294.950 207.149,295.531 207.879,295.531 208.137 C 295.531 208.395,296.157 209.214,296.922 209.957 C 297.686 210.699,298.312 211.539,298.312 211.822 C 298.312 212.105,298.669 212.595,299.106 212.910 C 299.543 213.225,299.901 213.761,299.901 214.101 C 299.901 214.442,300.257 214.977,300.693 215.292 C 301.129 215.606,301.596 216.450,301.731 217.167 C 301.865 217.884,302.101 218.471,302.254 218.471 C 302.407 218.471,302.778 219.096,303.078 219.861 C 303.378 220.626,303.769 221.251,303.947 221.251 C 304.125 221.251,304.270 221.609,304.270 222.046 C 304.270 222.483,304.449 222.840,304.667 222.840 C 304.886 222.840,305.065 223.376,305.065 224.032 C 305.065 224.687,305.243 225.223,305.462 225.223 C 305.680 225.223,305.859 225.655,305.859 226.183 C 305.859 226.711,306.040 227.204,306.261 227.277 C 306.482 227.351,306.777 228.885,306.916 230.687 C 307.055 232.488,307.321 233.962,307.507 233.962 C 307.693 233.962,307.845 237.448,307.845 241.708 C 307.845 245.968,307.693 249.454,307.506 249.454 C 307.320 249.454,307.043 251.554,306.890 254.121 C 306.738 256.688,306.443 258.848,306.236 258.921 C 306.029 258.994,305.859 259.843,305.859 260.808 C 305.859 261.773,305.680 262.562,305.462 262.562 C 305.243 262.562,305.065 263.009,305.065 263.555 C 305.065 264.101,304.886 264.548,304.667 264.548 C 304.449 264.548,304.270 265.084,304.270 265.740 C 304.270 266.395,304.091 266.931,303.873 266.931 C 303.654 266.931,303.476 267.468,303.476 268.123 C 303.476 268.779,303.297 269.315,303.078 269.315 C 302.860 269.315,302.681 269.762,302.681 270.308 C 302.681 270.854,302.518 271.301,302.319 271.301 C 302.120 271.301,301.836 272.016,301.688 272.890 C 301.541 273.764,301.257 274.479,301.057 274.479 C 300.858 274.479,300.695 274.747,300.695 275.074 C 300.695 275.402,300.516 275.670,300.298 275.670 C 300.079 275.670,299.901 275.988,299.901 276.377 C 299.901 276.766,299.543 277.341,299.106 277.656 C 298.669 277.971,298.312 278.458,298.312 278.737 C 298.312 279.017,298.136 279.245,297.922 279.245 C 297.708 279.245,297.410 279.735,297.259 280.334 C 297.109 280.933,296.257 282.092,295.365 282.911 C 294.473 283.729,293.410 284.737,293.001 285.151 C 289.200 289.001,287.723 290.367,287.363 290.367 C 287.225 290.367,286.610 290.904,285.998 291.559 C 285.386 292.214,284.599 292.751,284.250 292.751 C 283.900 292.751,283.615 292.910,283.615 293.105 C 283.615 293.300,283.168 293.571,282.622 293.708 C 282.075 293.845,281.629 294.133,281.629 294.347 C 281.629 294.561,281.271 294.737,280.834 294.737 C 280.397 294.737,280.040 294.916,280.040 295.134 C 280.040 295.353,279.682 295.531,279.245 295.531 C 278.808 295.531,278.451 295.710,278.451 295.929 C 278.451 296.147,278.183 296.326,277.855 296.326 C 277.527 296.326,277.259 296.504,277.259 296.723 C 277.259 296.941,276.723 297.120,276.068 297.120 C 275.412 297.120,274.876 297.299,274.876 297.517 C 274.876 297.736,274.518 297.915,274.081 297.915 C 273.644 297.915,273.287 298.080,273.287 298.283 C 273.287 298.486,272.304 298.775,271.102 298.925 C 269.901 299.075,268.918 299.356,268.918 299.549 C 268.918 299.743,268.471 299.901,267.925 299.901 C 267.378 299.901,266.931 300.079,266.931 300.298 C 266.931 300.516,266.395 300.695,265.740 300.695 C 265.084 300.695,264.548 300.874,264.548 301.092 C 264.548 301.311,263.744 301.490,262.761 301.490 C 261.778 301.490,260.973 301.668,260.973 301.887 C 260.973 302.105,260.348 302.284,259.583 302.284 C 258.818 302.284,258.193 302.443,258.193 302.637 C 258.193 302.832,256.048 303.120,253.426 303.277 C 250.804 303.435,248.659 303.722,248.659 303.917 C 248.659 304.111,247.140 304.270,245.283 304.270 C 243.297 304.270,241.907 304.434,241.907 304.667 C 241.907 304.910,240.053 305.065,237.140 305.065 C 234.227 305.065,232.373 305.219,232.373 305.462 C 232.373 305.723,222.708 305.859,204.171 305.859 C 185.634 305.859,175.968 305.723,175.968 305.462 C 175.968 305.219,174.115 305.065,171.202 305.065 C 168.289 305.065,166.435 304.910,166.435 304.667 C 166.435 304.430,164.912 304.270,162.661 304.270 C 160.586 304.270,158.888 304.114,158.888 303.924 C 158.888 303.734,156.743 303.450,154.121 303.293 C 151.500 303.137,149.355 302.846,149.355 302.646 C 149.355 302.447,148.550 302.284,147.567 302.284 C 146.584 302.284,145.780 302.105,145.780 301.887 C 145.780 301.668,145.065 301.490,144.191 301.490 C 143.317 301.490,142.602 301.311,142.602 301.092 C 142.602 300.874,141.976 300.695,141.212 300.695 C 140.447 300.695,139.821 300.516,139.821 300.298 C 139.821 300.079,139.196 299.901,138.431 299.901 C 137.666 299.901,137.041 299.743,137.041 299.549 C 137.041 299.356,136.058 299.075,134.856 298.925 C 133.654 298.775,132.671 298.486,132.671 298.283 C 132.671 298.080,132.135 297.915,131.480 297.915 C 130.824 297.915,130.288 297.736,130.288 297.517 C 130.288 297.299,129.752 297.120,129.096 297.120 C 128.441 297.120,127.905 296.941,127.905 296.723 C 127.905 296.504,127.637 296.326,127.309 296.326 C 126.981 296.326,126.713 296.147,126.713 295.929 C 126.713 295.710,126.356 295.531,125.919 295.531 C 125.482 295.531,125.124 295.353,125.124 295.134 C 125.124 294.916,124.588 294.737,123.932 294.737 C 123.277 294.737,122.741 294.572,122.741 294.371 C 122.741 294.170,122.160 293.878,121.450 293.722 C 120.740 293.566,119.870 293.105,119.517 292.697 C 119.163 292.290,118.672 291.956,118.424 291.956 C 118.177 291.956,117.974 291.778,117.974 291.559 C 117.974 291.341,117.656 291.162,117.267 291.162 C 116.879 291.162,116.303 290.804,115.988 290.367 C 115.673 289.930,115.163 289.573,114.854 289.573 C 114.545 289.573,113.878 289.126,113.371 288.580 C 112.865 288.034,112.263 287.587,112.033 287.587 C 111.483 287.587,102.483 278.556,102.483 278.004 C 102.483 277.770,101.946 277.077,101.291 276.465 C 100.636 275.853,100.099 275.155,100.099 274.915 C 100.099 274.675,99.921 274.479,99.702 274.479 C 99.484 274.479,99.305 274.134,99.305 273.713 C 99.305 273.291,99.037 272.678,98.709 272.351 C 98.381 272.023,98.113 271.474,98.113 271.131 C 98.113 270.787,97.934 270.506,97.716 270.506 C 97.498 270.506,97.319 270.238,97.319 269.911 C 97.319 269.583,97.140 269.315,96.922 269.315 C 96.703 269.315,96.524 268.779,96.524 268.123 C 96.524 267.468,96.346 266.931,96.127 266.931 C 95.909 266.931,95.730 266.574,95.730 266.137 C 95.730 265.700,95.551 265.343,95.333 265.343 C 95.114 265.343,94.935 264.896,94.935 264.350 C 94.935 263.803,94.771 263.357,94.570 263.357 C 94.369 263.357,94.080 262.195,93.928 260.775 C 93.776 259.355,93.493 258.193,93.300 258.193 C 93.107 258.193,92.949 257.478,92.949 256.604 C 92.949 255.730,92.771 255.015,92.552 255.015 C 92.334 255.015,92.155 254.032,92.155 252.830 C 92.155 251.629,91.976 250.645,91.758 250.645 C 91.504 250.645,91.360 247.203,91.360 241.112 C 91.360 235.022,91.504 231.579,91.758 231.579 C 91.976 231.579,92.155 230.953,92.155 230.189 C 92.155 229.424,92.334 228.798,92.552 228.798 C 92.771 228.798,92.949 228.098,92.949 227.243 C 92.949 226.387,93.140 225.623,93.372 225.546 C 93.605 225.468,93.896 224.649,94.020 223.725 C 94.144 222.802,94.401 222.046,94.591 222.046 C 94.780 222.046,94.935 221.688,94.935 221.251 C 94.935 220.814,95.114 220.457,95.333 220.457 C 95.551 220.457,95.730 220.189,95.730 219.861 C 95.730 219.533,95.909 219.265,96.127 219.265 C 96.346 219.265,96.524 218.908,96.524 218.471 C 96.524 218.034,96.703 217.676,96.922 217.676 C 97.140 217.676,97.319 217.338,97.319 216.924 C 97.319 216.511,97.595 216.066,97.933 215.937 C 98.272 215.807,98.736 215.162,98.965 214.504 C 99.195 213.845,99.544 213.307,99.741 213.307 C 99.938 213.307,100.101 212.994,100.103 212.612 C 100.105 212.229,100.641 211.494,101.295 210.978 C 101.948 210.462,102.483 209.874,102.483 209.670 C 102.483 209.226,103.052 208.517,104.764 206.830 C 106.823 204.803,108.571 203.065,109.527 202.093 C 111.150 200.445,112.381 199.404,112.708 199.404 C 112.886 199.404,113.290 199.047,113.605 198.610 C 113.920 198.173,114.495 197.815,114.884 197.815 C 115.273 197.815,115.591 197.637,115.591 197.418 C 115.591 197.200,115.948 197.021,116.385 197.021 C 116.822 197.021,117.180 196.850,117.180 196.642 C 117.180 196.433,117.805 196.145,118.570 196.002 C 119.335 195.858,119.960 195.582,119.960 195.388 C 119.960 195.194,120.318 195.035,120.755 195.035 C 121.192 195.035,121.549 194.856,121.549 194.638 C 121.549 194.419,121.996 194.240,122.542 194.240 C 123.088 194.240,123.535 194.062,123.535 193.843 C 123.535 193.625,124.071 193.446,124.727 193.446 C 125.382 193.446,125.919 193.267,125.919 193.049 C 125.919 192.830,126.708 192.651,127.673 192.651 C 128.638 192.651,129.492 192.457,129.571 192.220 C 129.663 191.946,132.063 191.707,136.158 191.565 C 139.702 191.442,142.602 191.189,142.602 191.003 C 142.602 190.817,144.300 190.665,146.375 190.665 C 148.451 190.665,150.149 190.817,150.149 191.002 " stroke="none" fill="#211f1f" fill-rule="evenodd"></path><path id="path2" d="M65.640 153.534 C 65.441 153.889,64.860 154.390,64.349 154.647 C 61.699 155.980,61.713 158.871,64.396 164.146 C 64.589 164.525,64.747 165.089,64.747 165.399 C 64.747 165.709,65.091 166.650,65.513 167.490 C 66.398 169.256,68.322 174.401,68.322 175.004 C 68.322 175.650,69.284 177.551,69.613 177.554 C 69.777 177.556,69.911 177.917,69.911 178.357 C 69.911 178.797,70.069 179.467,70.262 179.847 C 70.454 180.226,70.788 180.983,71.003 181.529 C 71.218 182.075,71.574 182.969,71.796 183.515 C 72.018 184.062,72.521 185.313,72.915 186.296 C 74.353 189.885,78.891 192.921,80.040 191.063 C 80.175 190.844,80.626 190.665,81.042 190.665 C 82.858 190.665,83.092 186.464,81.464 183.095 C 81.008 182.152,80.636 181.056,80.636 180.660 C 80.636 180.264,80.457 179.940,80.238 179.940 C 80.020 179.940,79.841 179.588,79.841 179.158 C 79.841 178.728,79.484 177.739,79.047 176.961 C 78.610 176.183,78.252 175.195,78.252 174.764 C 78.252 174.334,78.079 173.982,77.867 173.982 C 77.656 173.982,77.579 173.731,77.697 173.424 C 77.842 173.047,77.516 172.779,76.691 172.598 C 75.452 172.326,74.925 170.792,75.869 170.209 C 76.087 170.074,76.266 169.596,76.266 169.146 C 76.266 168.370,76.218 168.361,75.287 168.971 C 73.847 169.915,72.181 169.796,71.694 168.716 C 71.044 167.271,71.821 166.038,73.381 166.038 C 74.778 166.038,74.932 165.726,74.218 164.344 C 73.293 162.555,73.138 162.135,72.870 160.710 C 72.673 159.660,72.280 159.093,71.453 158.665 C 70.149 157.991,70.137 157.959,70.787 156.919 C 71.737 155.397,70.045 153.152,67.839 153.008 C 66.467 152.919,65.909 153.052,65.640 153.534 M67.920 161.465 C 68.580 162.260,68.141 163.257,67.130 163.257 C 66.679 163.257,66.207 162.987,66.080 162.656 C 65.852 162.061,66.551 160.874,67.130 160.874 C 67.295 160.874,67.651 161.140,67.920 161.465 M73.415 178.484 C 73.502 178.930,73.276 179.146,72.720 179.146 C 72.267 179.146,71.897 178.908,71.897 178.616 C 71.897 177.400,73.183 177.287,73.415 178.484 " stroke="none" fill="#c10000" fill-rule="evenodd"></path><path id="path3" d="M62.369 117.711 C 62.380 118.655,62.865 119.960,63.204 119.960 C 63.397 119.960,63.555 119.682,63.555 119.341 C 63.555 119.000,63.722 118.825,63.925 118.950 C 64.593 119.363,64.753 118.474,64.106 117.937 C 63.278 117.250,62.362 117.130,62.369 117.711 M72.745 146.439 C 72.689 147.331,74.279 151.872,74.551 151.599 C 74.637 151.514,74.360 150.564,73.936 149.489 C 73.512 148.414,73.083 147.095,72.982 146.558 C 72.820 145.693,72.793 145.680,72.745 146.439 M68.933 151.713 C 68.825 151.888,68.037 152.143,67.182 152.279 C 66.307 152.419,65.522 152.803,65.386 153.158 C 65.005 154.151,65.089 154.176,65.938 153.327 C 68.045 151.220,72.166 153.929,71.074 156.703 C 70.532 158.080,70.675 158.491,71.698 158.491 C 72.421 158.491,72.691 158.703,72.691 159.273 C 72.691 159.703,73.049 160.692,73.486 161.470 C 73.923 162.248,74.280 163.200,74.280 163.587 C 74.280 163.974,74.479 164.489,74.722 164.732 C 75.391 165.401,74.773 166.038,73.454 166.038 C 72.601 166.038,72.159 166.297,71.847 166.981 C 70.815 169.245,73.435 170.528,75.397 168.719 L 76.366 167.825 76.089 170.109 C 75.815 172.370,75.822 172.393,76.833 172.393 C 77.481 172.393,77.855 172.613,77.855 172.994 C 77.855 173.325,78.014 173.906,78.209 174.285 C 79.037 175.899,80.177 178.701,80.835 180.735 C 81.223 181.936,81.695 183.089,81.883 183.297 C 82.071 183.504,82.224 184.050,82.224 184.508 C 82.224 184.967,82.389 185.512,82.589 185.720 C 83.177 186.329,83.277 189.189,82.717 189.376 C 82.446 189.466,82.224 189.793,82.224 190.103 C 82.224 190.412,81.822 190.686,81.331 190.711 C 80.623 190.748,80.587 190.796,81.155 190.944 C 82.615 191.322,85.005 187.470,85.005 184.739 C 85.005 183.011,84.010 179.593,82.940 177.644 C 82.546 176.928,82.224 176.084,82.224 175.770 C 82.224 175.455,81.903 174.612,81.509 173.895 C 81.116 173.178,80.459 171.466,80.050 170.090 C 79.641 168.714,79.159 167.497,78.978 167.386 C 78.797 167.274,78.649 166.746,78.649 166.213 C 78.649 165.680,78.471 165.243,78.252 165.243 C 78.034 165.243,77.855 164.886,77.855 164.449 C 77.855 164.012,77.676 163.654,77.458 163.654 C 77.239 163.654,77.061 163.218,77.061 162.685 C 77.061 162.152,76.882 161.605,76.663 161.470 C 76.445 161.335,76.266 160.898,76.266 160.499 C 76.266 160.100,75.999 159.261,75.673 158.635 C 75.346 158.010,75.078 157.202,75.077 156.841 C 75.072 155.553,69.457 150.866,68.933 151.713 M63.227 155.040 C 62.752 155.546,62.363 156.172,62.363 156.431 C 62.363 156.690,62.185 156.902,61.966 156.902 C 61.479 156.902,61.435 158.758,61.915 159.055 C 62.105 159.172,62.375 159.837,62.514 160.532 C 62.652 161.227,62.880 161.681,63.019 161.542 C 63.159 161.403,62.969 160.494,62.598 159.522 C 61.871 157.618,62.024 157.002,63.724 155.015 C 64.729 153.840,64.336 153.860,63.227 155.040 M77.364 160.296 C 77.468 160.839,77.710 161.380,77.902 161.499 C 78.095 161.618,78.252 162.062,78.252 162.486 C 78.252 162.910,78.414 163.257,78.612 163.257 C 79.042 163.257,78.704 161.749,78.204 161.440 C 78.012 161.321,77.855 160.888,77.855 160.477 C 77.855 160.066,77.702 159.635,77.515 159.519 C 77.328 159.404,77.260 159.753,77.364 160.296 M66.340 161.465 C 65.680 162.260,66.119 163.257,67.130 163.257 C 68.193 163.257,68.567 162.254,67.793 161.480 C 67.044 160.731,66.950 160.730,66.340 161.465 M63.158 162.233 C 63.158 162.638,64.419 165.842,65.178 167.366 C 65.596 168.206,65.938 169.113,65.938 169.381 C 65.938 169.911,67.486 173.174,67.511 172.699 C 67.536 172.257,66.361 169.203,65.507 167.490 C 65.089 166.650,64.747 165.633,64.747 165.229 C 64.747 164.826,64.568 164.385,64.350 164.250 C 64.131 164.115,63.952 163.668,63.952 163.257 C 63.952 162.846,63.774 162.399,63.555 162.264 C 63.337 162.129,63.158 162.115,63.158 162.233 M79.058 164.449 C 79.061 164.777,79.433 165.492,79.884 166.038 C 80.335 166.584,80.589 166.807,80.447 166.533 C 79.264 164.244,79.052 163.926,79.058 164.449 M82.509 173.704 C 82.603 174.194,83.045 175.038,83.492 175.579 L 84.305 176.564 83.662 175.486 C 83.308 174.893,83.019 174.143,83.019 173.821 C 83.019 173.498,82.866 173.140,82.679 173.025 C 82.492 172.909,82.416 173.215,82.509 173.704 M67.749 174.352 C 67.898 175.102,68.356 176.314,68.766 177.046 C 69.177 177.777,69.513 178.728,69.513 179.158 C 69.513 179.588,69.692 179.940,69.911 179.940 C 70.129 179.940,70.308 180.262,70.308 180.655 C 70.308 181.049,70.450 181.540,70.624 181.748 C 70.798 181.955,71.170 182.840,71.452 183.714 C 72.793 187.879,74.963 191.063,76.461 191.063 C 76.791 191.063,77.061 191.241,77.061 191.460 C 77.061 191.678,77.776 191.857,78.649 191.857 C 79.523 191.857,80.238 191.703,80.238 191.515 C 80.238 191.327,79.792 191.258,79.247 191.362 C 77.076 191.777,74.183 189.463,72.915 186.296 C 72.521 185.313,72.018 184.062,71.796 183.515 C 71.574 182.969,71.218 182.075,71.003 181.529 C 70.788 180.983,70.454 180.226,70.262 179.847 C 70.069 179.467,69.911 178.797,69.911 178.357 C 69.911 177.917,69.777 177.556,69.613 177.554 C 69.235 177.550,68.324 175.612,68.316 174.797 C 68.312 174.458,68.123 173.913,67.894 173.585 C 67.588 173.146,67.550 173.348,67.749 174.352 M72.170 177.814 C 71.608 178.376,71.926 179.146,72.720 179.146 C 73.276 179.146,73.502 178.930,73.415 178.484 C 73.274 177.753,72.596 177.388,72.170 177.814 M86.074 183.760 C 86.335 186.450,86.526 186.825,86.556 184.707 C 86.570 183.724,86.425 182.672,86.233 182.369 C 86.019 182.031,85.957 182.564,86.074 183.760 M72.693 191.198 C 73.238 191.819,74.042 192.511,74.479 192.737 C 75.315 193.167,75.290 193.141,73.090 191.258 L 71.701 190.070 72.693 191.198 M76.477 193.482 C 77.504 193.883,79.745 193.924,79.975 193.545 C 80.075 193.381,79.152 193.231,77.926 193.212 C 76.504 193.189,75.979 193.287,76.477 193.482 " stroke="none" fill="#dd8989" fill-rule="evenodd"></path><path id="path4" d="M58.391 117.570 C 58.391 117.792,57.766 117.974,57.001 117.974 C 56.236 117.974,55.611 118.129,55.611 118.317 C 55.611 118.506,54.838 118.767,53.893 118.896 C 52.243 119.122,48.802 120.633,48.527 121.251 C 48.454 121.415,48.207 121.549,47.978 121.549 C 47.517 121.549,46.077 123.080,46.077 123.569 C 46.077 123.740,45.720 123.992,45.283 124.131 C 44.246 124.460,44.144 127.003,45.153 127.390 C 46.394 127.866,48.064 130.095,48.064 131.276 C 48.064 131.606,48.242 131.877,48.461 131.877 C 48.679 131.877,48.858 132.324,48.858 132.870 C 48.858 133.416,49.037 133.863,49.255 133.863 C 49.474 133.863,49.652 134.220,49.652 134.657 C 49.652 135.094,49.831 135.452,50.050 135.452 C 50.268 135.452,50.447 135.899,50.447 136.445 C 50.447 136.991,50.603 137.438,50.793 137.438 C 50.983 137.438,51.258 138.332,51.402 139.424 C 51.547 140.516,51.838 141.410,52.049 141.410 C 52.260 141.410,52.433 141.857,52.433 142.403 C 52.433 142.949,52.612 143.396,52.830 143.396 C 53.049 143.396,53.227 143.743,53.227 144.167 C 53.227 144.591,53.406 145.049,53.625 145.184 C 53.843 145.319,54.022 145.944,54.022 146.574 C 54.022 147.204,54.201 147.829,54.419 147.964 C 54.638 148.099,54.816 148.557,54.816 148.981 C 54.816 149.405,54.995 149.752,55.214 149.752 C 55.432 149.752,55.611 149.929,55.611 150.146 C 55.611 150.825,56.974 153.724,57.293 153.724 C 57.460 153.724,57.597 154.250,57.597 154.892 C 57.597 155.535,57.776 156.171,57.994 156.306 C 58.213 156.441,58.391 156.859,58.391 157.235 C 58.391 157.610,58.749 158.176,59.186 158.491 C 59.652 158.827,59.980 159.519,59.980 160.167 C 59.980 160.774,60.136 161.271,60.327 161.271 C 60.517 161.271,60.787 161.986,60.927 162.860 C 61.092 163.888,61.390 164.449,61.772 164.449 C 62.097 164.449,62.363 164.672,62.362 164.945 C 62.361 165.218,63.056 167.229,63.907 169.414 C 64.759 171.599,66.473 176.068,67.717 179.345 C 71.547 189.435,71.927 190.232,73.581 191.648 C 77.471 194.977,83.959 193.287,86.000 188.412 C 86.580 187.026,86.155 181.727,85.403 180.974 C 85.184 180.755,85.005 179.986,85.005 179.265 C 85.005 178.544,84.826 177.954,84.608 177.954 C 84.389 177.954,84.211 177.669,84.211 177.321 C 84.211 176.972,83.891 176.212,83.501 175.632 C 82.633 174.343,81.946 172.352,81.593 170.109 C 81.448 169.181,81.173 168.421,80.982 168.421 C 80.791 168.421,80.632 168.108,80.627 167.726 C 80.622 167.344,80.268 166.584,79.841 166.038 C 79.414 165.492,79.060 164.643,79.056 164.151 C 79.051 163.659,78.868 163.257,78.649 163.257 C 78.431 163.257,78.252 162.935,78.252 162.542 C 78.252 162.149,78.105 161.657,77.925 161.450 C 77.745 161.242,77.273 160.000,76.877 158.689 C 76.174 156.369,75.858 155.466,75.107 153.625 C 73.385 149.406,72.618 146.896,72.818 146.134 C 73.067 145.180,72.297 142.205,71.800 142.205 C 71.635 142.205,71.500 141.845,71.500 141.405 C 71.500 140.648,70.793 139.062,70.263 138.630 C 70.051 138.456,69.617 136.622,69.441 135.154 C 69.408 134.881,69.232 134.657,69.050 134.657 C 68.868 134.657,68.719 134.225,68.719 133.697 C 68.719 133.169,68.542 132.678,68.325 132.605 C 68.109 132.532,67.891 131.981,67.841 131.380 C 67.792 130.780,67.631 130.288,67.485 130.288 C 67.338 130.288,66.980 129.484,66.690 128.500 C 66.400 127.517,66.043 126.713,65.897 126.713 C 65.524 126.713,65.170 124.575,65.049 121.588 C 64.956 119.301,63.555 117.249,63.555 119.400 C 63.555 120.512,62.791 119.930,62.547 118.632 C 62.299 117.308,58.391 116.309,58.391 117.570 M60.775 120.261 C 60.775 120.780,57.996 123.138,57.385 123.138 C 57.064 123.138,56.802 123.300,56.802 123.498 C 56.802 123.823,53.054 124.583,52.334 124.404 C 52.170 124.363,52.036 124.508,52.036 124.727 C 52.036 124.945,51.500 125.124,50.844 125.124 C 49.157 125.124,49.267 123.923,51.043 122.967 C 51.807 122.555,52.433 122.068,52.433 121.884 C 52.433 121.700,52.780 121.549,53.204 121.549 C 53.628 121.549,54.085 121.370,54.220 121.152 C 54.355 120.933,54.813 120.755,55.237 120.755 C 55.661 120.755,56.008 120.576,56.008 120.357 C 56.008 120.137,57.067 119.960,58.391 119.960 C 59.702 119.960,60.775 120.096,60.775 120.261 M73.135 154.325 C 74.202 155.348,75.076 156.480,75.077 156.841 C 75.078 157.202,75.346 158.010,75.673 158.635 C 75.999 159.261,76.266 160.100,76.266 160.499 C 76.266 160.898,76.445 161.335,76.663 161.470 C 76.882 161.605,77.061 162.152,77.061 162.685 C 77.061 163.218,77.239 163.654,77.458 163.654 C 77.676 163.654,77.855 164.012,77.855 164.449 C 77.855 164.886,78.034 165.243,78.252 165.243 C 78.471 165.243,78.649 165.680,78.649 166.213 C 78.649 166.746,78.797 167.274,78.978 167.386 C 79.159 167.497,79.641 168.714,80.050 170.090 C 80.459 171.466,81.116 173.178,81.509 173.895 C 81.903 174.612,82.224 175.455,82.224 175.770 C 82.224 176.084,82.546 176.928,82.940 177.644 C 86.048 183.303,84.976 191.063,81.087 191.063 C 80.620 191.063,80.238 191.241,80.238 191.460 C 80.238 191.678,79.523 191.857,78.649 191.857 C 77.776 191.857,77.061 191.678,77.061 191.460 C 77.061 191.241,76.791 191.063,76.461 191.063 C 74.963 191.063,72.793 187.879,71.452 183.714 C 71.170 182.840,70.798 181.955,70.624 181.748 C 70.450 181.540,70.308 181.049,70.308 180.655 C 70.308 180.262,70.129 179.940,69.911 179.940 C 69.692 179.940,69.513 179.588,69.513 179.158 C 69.513 178.728,69.177 177.777,68.766 177.046 C 68.356 176.314,67.888 175.102,67.727 174.352 C 67.566 173.603,67.098 172.285,66.686 171.425 C 66.275 170.565,65.938 169.643,65.938 169.377 C 65.938 169.111,65.594 168.206,65.173 167.366 C 64.751 166.526,63.936 164.499,63.360 162.860 C 62.785 161.221,62.146 159.570,61.942 159.191 C 61.450 158.281,61.465 156.902,61.966 156.902 C 62.185 156.902,62.363 156.690,62.363 156.431 C 62.363 155.790,63.972 154.121,64.591 154.121 C 64.866 154.121,65.204 153.764,65.342 153.327 C 65.517 152.778,66.079 152.456,67.166 152.282 C 68.030 152.144,68.825 151.888,68.933 151.713 C 69.248 151.204,71.040 152.318,73.135 154.325 " stroke="none" fill="#cfd0d1" fill-rule="evenodd"></path></g></svg>